<?xml version="1.0" standalone="no"?>
<!DOCTYPE svg PUBLIC "-//W3C//DTD SVG 20010904//EN"
 "http://www.w3.org/TR/2001/REC-SVG-20010904/DTD/svg10.dtd">
<svg version="1.0" xmlns="http://www.w3.org/2000/svg"
 width="128.000000pt" height="128.000000pt" viewBox="0 0 128.000000 128.000000"
 preserveAspectRatio="xMidYMid meet">
<metadata>
Created by potrace 1.11, written by Peter Selinger 2001-2013
</metadata>
<g transform="translate(0.000000,128.000000) scale(0.100000,-0.100000)"
fill="#000000" stroke="none">
<path d="M181 1220 c-44 -10 -81 -39 -106 -81 -19 -32 -20 -55 -23 -476 -2
-297 1 -456 8 -483 16 -58 61 -105 114 -119 55 -14 872 -15 930 -1 51 11 105
65 116 116 14 58 13 875 -1 930 -13 52 -60 98 -116 113 -45 13 -870 13 -922 1z
m476 -226 c-3 -3 -12 -4 -19 -1 -8 3 -5 6 6 6 11 1 17 -2 13 -5z m50 0 c-3 -3
-12 -4 -19 -1 -8 3 -5 6 6 6 11 1 17 -2 13 -5z m-149 -40 c19 -13 25 -12 47 2
33 21 97 21 130 0 23 -15 27 -15 50 0 14 9 44 17 67 17 34 0 47 -6 70 -32 38
-42 37 -83 -1 -122 -16 -16 -39 -29 -50 -29 -19 0 -21 -6 -21 -60 l0 -60 -180
0 -180 0 0 55 c0 53 -1 55 -34 69 -90 37 -87 139 4 175 28 11 65 5 98 -15z
m-271 -467 c-1 -67 -3 -9 -3 128 0 138 2 192 3 122 2 -71 2 -183 0 -250z m471
136 c-49 -2 -127 -2 -176 0 -48 1 -8 3 88 3 96 0 136 -2 88 -3z m92 -38 l0
-25 -180 0 -180 0 0 25 0 25 180 0 180 0 0 -25z m37 -232 c-172 -3 -209 -6
-213 -18 -8 -19 -30 -19 -38 0 -4 12 -43 15 -233 18 -125 1 -21 2 232 2 253 0
366 -1 252 -2z m273 -58 c0 -20 -7 -49 -15 -65 -28 -53 -56 -60 -247 -59 -330
1 -698 15 -710 27 -7 7 -20 12 -29 12 -24 0 -31 26 -11 43 40 34 166 46 572
52 217 4 401 10 410 15 25 15 30 11 30 -25z m-490 -185 c0 -5 -7 -10 -15 -10
-8 0 -15 5 -15 10 0 6 7 10 15 10 8 0 15 -4 15 -10z"/>
</g>
</svg>
